# xmcd
#
# Track frame offsets: 
#        150
#        10344
#        20682
#        29248
#        39447
#        48465
#        60662
#        72396
#        86059
#        97387
#        106267
#        116279
#
# Disc length: 1720 seconds
#
# Revision: 2
# Processed by: cddbd v1.5.2PL0 Copyright (c) Steve Scherf et al.
# Submitted via: ExactAudioCopy v1.0b1
#
DISCID=a706b60c
DTITLE=Johnny Cash - The Fabulous Johnny Cash
DYEAR=1958
DGENRE=Country
TTITLE0=Run Softly, Blue River
TTITLE1=Frankie's Man Johnny
TTITLE2=That's All Over
TTITLE3=The Troubador
TTITLE4=One More Ride
TTITLE5=That's Enough
TTITLE6=I Still Miss Someone
TTITLE7=Don't Take Your Guns To Town
TTITLE8=I'd Rather Die Young
TTITLE9=Pickin' Time
TTITLE10=Shepard Of My Heart
TTITLE11=Supper Time
EXTD=
EXTT0=
EXTT1=
EXTT2=
EXTT3=
EXTT4=
EXTT5=
EXTT6=
EXTT7=
EXTT8=
EXTT9=
EXTT10=
EXTT11=
PLAYORDER=
